# xmcd CD database file
#
# Track frame offsets:
#	150
#	21898
#	46948
#	68695
#
# Disc length: 1246 seconds
#
# Revision: 0
# Processed by: cddbd v1.5.1PL2 Copyright (c) Steve Scherf et al.
# Submitted via: CDex 1.51
#
DISCID=2a04dc04
DTITLE=夏川りみ - さようなら ありがとう
DYEAR=2005
DGENRE=JPop
TTITLE0=さようなら ありがとう
TTITLE1=シマダチ
TTITLE2=さようなら ありがとう [Instrumental Version]
TTITLE3=シマダチ [Instrumental Version]
EXTD=YEAR: 2005
EXTT0=
EXTT1=
EXTT2=
EXTT3=
PLAYORDER=
